<mxfile host="app.diagrams.net" modified="2023-10-31T11:43:36.319Z" agent="Mozilla/5.0 (Macintosh; Intel Mac OS X 10_15_7) AppleWebKit/537.36 (KHTML, like Gecko) Chrome/117.0.0.0 Safari/537.36" version="22.0.8" etag="GG0NYBUBEDiCrECt2nQ5" type="github">
  <diagram name="第 1 页" id="auZpU12ey8F-pe9r-_vF">
    <mxGraphModel>
      <root>
        <mxCell id="0" />
        <mxCell id="1" parent="0" />
      </root>
    </mxGraphModel>
  </diagram>
</mxfile>
